# xmcd CD database file
#
# Track frame offsets:
#	150
#	21870
#	44345
#	66080
#
# Disc length: 1177 seconds
#
# Revision: 0
# Processed by: cddbd v1.5.1PL0 Copyright (c) Steve Scherf et al.
# Submitted via: CDex 1.51
#
DISCID=2e049704
DTITLE=樽木栄一郎 - 音の出ない月の下で
DYEAR=2004
DGENRE=J-Pop
TTITLE0=音の出ない月の下で
TTITLE1=kitty
TTITLE2=音の出ない月の下で (instrumental)
TTITLE3=kitty (instrumental)
EXTD=YEAR: 2004
EXTT0=
EXTT1=
EXTT2=
EXTT3=
PLAYORDER=
